<svg xmlns="http://www.w3.org/2000/svg" width="467" height="246.257" viewBox="132.5 1571.027 467 246.257"><g data-name="Group 57"><g data-name="Group 56" transform="translate(132.5 1571.025)" clip-path="url(&quot;#a&quot;)"><path d="M65.464 112.056c-2.187 7.97-11.56 20.155-31.092 20.155C13.905 132.21 0 112.68 0 94.4c0-17.968 13.749-37.186 40.466-37.186 11.093 0 17.81 4.531 20.468 6.874 2.656 2.344 4.219 6.72 3.124 10.47-1.56 5.468-7.186 9.06-12.81 7.499-5.627-1.406-8.907-7.188-7.345-12.656.625-2.969 2.501-5 4.844-6.25 1.406-.626-2.031-3.28-8.28-3.28-5.625 0-20.78 4.842-20.78 31.716 0 16.874 9.062 24.373 19.841 26.718 7.813 1.72 20.157-2.5 23.749-7.656l2.187 1.406Z" fill="#212121" fill-rule="evenodd" data-name="Path 208"/><path d="m149.364 120.023 2.656 1.093c-1.25 5-8.437 11.095-18.28 11.095 0 0-13.906 0-15.625-12.658-2.343 6.877-11.561 12.658-22.654 12.658 0 0-17.97 0-17.97-15.938 0-17.031 13.127-18.592 40.469-25.468V81.12c0-16.251-9.062-24.375-19.843-18.749-5 2.498-5.625 5.155-4.53 5.312 2.342.313 4.375 1.406 5.78 3.437 2.812 4.062 1.719 9.53-2.343 12.342-4.062 2.656-9.532 1.718-12.343-2.342-1.876-2.971-2.033-6.72-.47-9.375 1.563-2.656 3.594-6.876 12.186-11.407 7.033-3.748 15.157-3.125 15.157-3.125 20.468 0 26.093 12.812 26.093 31.25v23.278s-.157 10.938 7.499 10.938c0 0 3.28 0 4.218-2.656M117.96 93.617c-15.312 3.437-20.468 10.782-20.468 18.75 0 0 0 10.312 10.155 10.312 5.313 0 8.907-4.219 10.313-7.969V93.617Z" fill="#212121" fill-rule="evenodd" data-name="Path 209"/><path d="M270.264 93.307H220.58c1.25 15.31 9.062 23.28 19.53 25.623 8.437 1.875 20.936-1.25 24.843-8.593l2.654 1.406c-2.497 8.125-11.716 20.468-32.652 20.468-20.468 0-34.53-18.905-34.53-37.186 0-22.03 14.998-37.81 36.56-37.81 22.656 0 33.28 11.717 33.28 36.092m-19.062-2.657c0-19.687-6.407-30.78-14.999-30.78-9.218 0-15.624 15.782-15.624 30.78h30.623Z" fill="#212121" fill-rule="evenodd" data-name="Path 210"/><path d="M382.637 128.147v2.658h-32.185v-2.658c5.938-1.717 6.251-8.437 6.251-16.404V81.43c0-7.499-4.845-12.967-12.658-12.967-6.09 0-13.28 6.561-13.28 12.812v30.778c0 8.594.938 14.532 6.406 16.093v2.658h-32.029v-2.658c5.938-1.717 6.095-8.124 6.095-16.093v-35.31c0-5.467-1.408-7.187-7.813-10.624v-2.656l27.34-6.25v16.718c3.597-9.53 15.939-16.717 25.782-16.717 12.186 0 19.685 4.843 19.685 23.748v30.78c0 8.592.782 15 6.406 16.404" fill="#212121" fill-rule="evenodd" data-name="Path 211"/><path d="m464.344 120.023 2.656 1.093c-1.25 5-8.437 11.095-18.279 11.095 0 0-13.907 0-15.624-12.658-2.345 6.877-11.563 12.658-22.656 12.658 0 0-17.97 0-17.97-15.938 0-17.031 13.125-18.592 40.469-25.468V81.12c0-16.251-9.062-24.375-19.843-18.749-5 2.498-5.625 5.155-4.53 5.312 2.344.313 4.375 1.406 5.78 3.437 2.811 4.062 1.719 9.53-2.343 12.342-4.064 2.656-9.532 1.718-12.343-2.342-1.876-2.971-2.03-6.72-.47-9.375 1.563-2.656 3.594-6.876 12.186-11.407 7.033-3.748 15.157-3.125 15.157-3.125 20.468 0 26.093 12.812 26.093 31.25v23.278s-.157 10.938 7.499 10.938c0 0 3.28 0 4.218-2.656M432.94 93.617c-15.312 3.437-20.468 10.782-20.468 18.75 0 0 0 10.312 10.155 10.312 5.313 0 8.907-4.219 10.313-7.969V93.617Z" fill="#212121" fill-rule="evenodd" data-name="Path 212"/><path d="M173.909 210.673c-2.188 7.97-11.563 20.155-31.093 20.155-20.468 0-34.374-19.53-34.374-37.81 0-17.968 13.75-37.186 40.467-37.186 11.094 0 17.812 4.532 20.468 6.874 2.656 2.344 4.218 6.72 3.126 10.47-1.563 5.468-7.188 9.06-12.813 7.499-5.625-1.406-8.905-7.188-7.344-12.656.627-2.969 2.5-5 4.845-6.25 1.406-.626-2.033-3.28-8.282-3.28-5.623 0-20.78 4.842-20.78 31.716 0 16.874 9.062 24.374 19.844 26.718 7.812 1.72 20.154-2.501 23.748-7.656l2.188 1.406Z" fill="#212121" fill-rule="evenodd" data-name="Path 213"/><path d="m257.805 218.642 2.658 1.093c-1.25 5-8.44 11.095-18.281 11.095 0 0-13.905 0-15.625-12.658-2.344 6.876-11.56 12.658-22.655 12.658 0 0-17.968 0-17.968-15.938 0-17.031 13.124-18.592 40.467-25.468v-9.685c0-16.252-9.062-24.375-19.844-18.749-4.998 2.497-5.625 5.155-4.53 5.312 2.344.313 4.375 1.406 5.782 3.437 2.812 4.062 1.717 9.53-2.345 12.342-4.062 2.656-9.53 1.718-12.342-2.342-1.874-2.971-2.031-6.72-.47-9.375 1.565-2.656 3.594-6.877 12.188-11.407 7.03-3.748 15.154-3.125 15.154-3.125 20.47 0 26.095 12.812 26.095 31.25v23.278s-.157 10.938 7.5 10.938c0 0 3.28 0 4.216-2.656M226.4 192.236c-15.312 3.437-20.469 10.781-20.469 18.75 0 0 0 10.312 10.157 10.312 5.313 0 8.907-4.219 10.312-7.969v-21.093Z" fill="#212121" fill-rule="evenodd" data-name="Path 214"/><path d="M383.73 229.422h-32.185v-2.658c5.938-1.717 6.25-8.435 6.25-16.404v-30.312c0-8.748-4.374-12.967-11.405-12.967-5.782 0-12.345 7.031-12.345 13.28v29.999c0 8.594.782 15 6.407 16.404v2.658h-32.186v-2.658c5.938-1.717 6.251-8.435 6.251-16.404v-30.312c0-8.748-4.22-12.967-11.25-12.967-5.78 0-12.5 7.188-12.5 12.813v30.78c0 8.591.938 14.53 6.406 16.09v2.658h-32.03v-2.658c5.939-1.717 6.094-8.122 6.094-16.09v-34.218c0-5.468-1.406-8.282-7.81-11.719v-2.654l27.34-6.251v16.093c4.218-9.062 13.75-16.093 23.594-16.093 10.936 0 17.653 5 19.528 16.56 3.282-9.53 13.907-16.56 23.75-16.56 12.186 0 19.685 4.843 19.685 23.748v30.78c0 8.594.782 15 6.406 16.404v2.658Z" fill="#212121" fill-rule="evenodd" data-name="Path 215"/><path d="m464.344 218.642 2.656 1.093c-1.25 5-8.437 11.095-18.279 11.095 0 0-13.907 0-15.624-12.658-2.345 6.876-11.563 12.658-22.656 12.658 0 0-17.97 0-17.97-15.938 0-17.031 13.125-18.592 40.469-25.468v-9.685c0-16.252-9.062-24.375-19.843-18.749-5 2.497-5.625 5.155-4.53 5.312 2.344.313 4.375 1.406 5.78 3.437 2.811 4.062 1.719 9.53-2.343 12.342-4.064 2.656-9.532 1.718-12.343-2.342-1.876-2.971-2.03-6.72-.47-9.375 1.563-2.656 3.594-6.877 12.186-11.407 7.033-3.748 15.157-3.125 15.157-3.125 20.468 0 26.093 12.812 26.093 31.25v23.278s-.157 10.938 7.499 10.938c0 0 3.28 0 4.218-2.656m-31.404-26.406c-15.312 3.437-20.468 10.781-20.468 18.75 0 0 0 10.312 10.155 10.312 5.313 0 8.907-4.219 10.313-7.969v-21.093Z" fill="#212121" fill-rule="evenodd" data-name="Path 216"/><path d="M258.475 48.675H184.98v64.476c0 8.592.781 13.433 6.406 14.998v2.654h-32.03v-2.654c5.937-1.72 6.094-7.031 6.094-14.998V48.675h-10.155v-4.458h10.155c0-36.093 10.155-44.215 29.06-44.215 8.594 0 15 5.153 16.563 7.812 1.874 2.809 2.342 7.34.781 10.623-2.344 4.532-7.969 6.406-12.5 4.219-4.687-2.345-6.562-7.814-4.217-12.5 1.093-2.342 3.124-3.752 5.468-4.218 2.342-.313 0-3.282-5.782-3.282-6.094 0-9.843 9.22-9.843 41.56h73.495a2.23 2.23 0 0 1 0 4.459" fill="#212121" fill-rule="evenodd" data-name="Path 217"/><path d="M464.77 246.258H185.935V241.8h278.837a2.23 2.23 0 0 1 0 4.458" fill="#212121" fill-rule="evenodd" data-name="Path 218"/></g></g><defs><clipPath id="a"><path d="M0 0h467v246.258H0V0z" data-name="Rectangle 53"/></clipPath></defs></svg>