<svg xmlns="http://www.w3.org/2000/svg" xmlns:xlink="http://www.w3.org/1999/xlink" width="272.211" height="51.848" viewBox="0 0 272.211 51.848">
  <defs>
    <clipPath id="clip-path">
      <rect id="Rectangle_42" data-name="Rectangle 42" width="272.211" height="51.848" fill="none"/>
    </clipPath>
  </defs>
  <g id="Group_44" data-name="Group 44" clip-path="url(#clip-path)">
    <path id="Path_182" data-name="Path 182" d="M23.1,5.583C11.235,5.583,6.28,15.841,6.28,25.889c0,10.118,4.954,20.376,16.818,20.376,10.467,0,14.514-7.118,14.933-13.4h6.28C43.195,43.893,35.379,51.848,23.1,51.848,9.421,51.848,0,40.962,0,25.889,0,10.886,9.421,0,23.1,0,35.31,0,43.125,7.956,44.311,17.446h-6.28C37.124,12.7,33.5,5.583,23.1,5.583" transform="translate(0 0)"/>
    <rect id="Rectangle_41" data-name="Rectangle 41" width="6.281" height="49.894" transform="translate(168.727 0.977)"/>
    <path id="Path_183" data-name="Path 183" d="M416.678,2.217l13.83,47.7,13.83-47.7h7.069l-14.36,49.894H423.969L409.608,2.217Z" transform="translate(-229.088 -1.24)"/>
    <path id="Path_184" data-name="Path 184" d="M506.824,25.888c0-15,9.769-25.889,24.423-25.889s24.423,10.886,24.423,25.889-9.77,25.959-24.423,25.959-24.423-10.956-24.423-25.959m42.567,0c0-10.746-5.583-20.306-18.143-20.306S513.1,15.142,513.1,25.888s5.582,20.376,18.143,20.376,18.143-9.63,18.143-20.376" transform="translate(-283.46 0.001)"/>
    <path id="Path_185" data-name="Path 185" d="M310.082,29.083v-.14c5.513-1.4,8.932-5.373,8.932-12.56,0-8.863-6.63-14.166-16.469-14.166H282.309V52.111h6.281v-18l-4.085-2.163H302.9c12.63,0,7.885,18.073,10.048,20.167h6.769v-.984c-2.582-.837,1.466-19.881-9.63-22.044m-9-2.721H288.59V7.8h12.49c5.164,0,11.654.628,11.654,9.281s-6.49,9.281-11.654,9.281" transform="translate(-157.892 -1.24)"/>
    <path id="Path_186" data-name="Path 186" d="M225.212,29.083v-.14c5.513-1.4,8.932-5.373,8.932-12.56,0-8.863-6.629-14.166-16.469-14.166H197.439V52.111h6.281v-18l-4.085-2.163h18.39c12.631,0,7.886,18.073,10.049,20.167h6.769v-.984c-2.582-.837,1.465-19.881-9.63-22.044m-9-2.721H203.72V7.8h12.491c5.163,0,11.653.628,11.653,9.281s-6.49,9.281-11.653,9.281" transform="translate(-110.425 -1.24)"/>
    <path id="Path_187" data-name="Path 187" d="M140.341,29.083v-.14c5.513-1.4,8.932-5.373,8.932-12.56,0-8.863-6.629-14.166-16.469-14.166H112.568V52.111h6.281v-18l-4.085-2.163h18.39c12.63,0,7.885,18.073,10.048,20.167h6.769v-.984c-2.582-.837,1.466-19.881-9.63-22.044m-9-2.721H118.849V7.8h12.491c5.164,0,11.654.628,11.654,9.281s-6.49,9.281-11.654,9.281" transform="translate(-62.958 -1.24)"/>
  </g>
</svg>
