<?xml version="1.0" encoding="UTF-8"?>
<svg id="Layer_1" fill="currentColor" xmlns="http://www.w3.org/2000/svg" version="1.1" viewBox="0 0 763.09 461.62">
  <!-- Generator: Adobe Illustrator 29.3.1, SVG Export Plug-In . SVG Version: 2.1.0 Build 151)  -->
  <g>
    <path fill="currentColor" class="st0" d="M186.13,33.45c-22.63,0-31.6,18.96-31.6,39.68s8.97,39.83,31.6,39.83c19.55,0,27.05-12.79,28.22-25.57h17.49c-2.35,23.66-18.52,40.56-45.27,40.56-30.27,0-49.38-23.08-49.38-54.82s19.11-54.68,49.38-54.68c26.6,0,42.77,16.9,45.27,38.36h-17.49c-1.91-10.58-8.82-23.37-28.22-23.37Z"/>
    <path fill="currentColor" class="st0" d="M244.76,20.66h44.83c21.6,0,35.57,11.02,35.57,30.13,0,14.7-7.5,23.22-19.55,26.16v.29c24.25,4.55,15.43,45.71,21.02,47.47v1.03h-18.37c-4.85-4.41,5-40.57-20.28-40.57h-25.72v40.57h-17.49V20.66ZM262.25,70.19h23.66c10.73,0,21.9-2.06,21.9-17.34s-11.17-17.34-21.9-17.34h-23.66v34.68Z"/>
    <path fill="currentColor" class="st0" d="M357.33,20.66v105.09h-17.49V20.66h17.49Z"/>
    <path fill="currentColor" class="st0" d="M385.83,20.66l26.75,85.98h.15l26.75-85.98h18.52l-35.86,105.09h-18.96l-35.86-105.09h18.52Z"/>
    <path fill="currentColor" class="st0" d="M458.72,73.13c0-31.6,19.84-54.68,51.59-54.68s51.59,23.08,51.59,54.68-19.99,54.82-51.59,54.82-51.59-23.22-51.59-54.82ZM544.4,73.13c0-21.16-10-39.68-34.1-39.68s-34.24,18.52-34.24,39.68,10.14,39.83,34.24,39.83,34.1-18.52,34.1-39.83Z"/>
  </g>
  <g>
    <path fill="currentColor" class="st0" d="M593.42,394.22c0,22.63,18.96,31.6,39.68,31.6s39.83-8.97,39.83-31.6c0-19.55-12.79-27.05-25.57-28.22v-17.49c23.66,2.35,40.56,18.52,40.56,45.27,0,30.27-23.08,49.38-54.82,49.38s-54.68-19.11-54.68-49.38c0-26.6,16.9-42.77,38.36-45.27v17.49c-10.58,1.91-23.37,8.82-23.37,28.22Z"/>
    <path fill="currentColor" class="st0" d="M580.63,335.59v-44.83c0-21.6,11.02-35.57,30.13-35.57,14.7,0,23.22,7.5,26.16,19.55h.29c4.55-24.25,45.71-15.43,47.47-21.02h1.03v18.37c-4.41,4.85-40.57-5-40.57,20.28v25.72h40.57v17.49h-105.09ZM630.16,318.1v-23.66c0-10.73-2.06-21.9-17.34-21.9s-17.34,11.17-17.34,21.9v23.66h34.68Z"/>
    <path fill="currentColor" class="st0" d="M580.63,223.03h105.09v17.49h-105.09v-17.49Z"/>
    <path fill="currentColor" class="st0" d="M580.63,194.52l85.98-26.75v-.15l-85.98-26.75v-18.52l105.09,35.86v18.96l-105.09,35.86v-18.52Z"/>
    <path fill="currentColor" class="st0" d="M633.1,121.64c-31.6,0-54.68-19.84-54.68-51.59s23.08-51.59,54.68-51.59,54.82,19.99,54.82,51.59-23.22,51.59-54.82,51.59ZM633.1,35.95c-21.16,0-39.68,10-39.68,34.1s18.52,34.24,39.68,34.24,39.83-10.14,39.83-34.24-18.52-34.1-39.83-34.1Z"/>
  </g>
  <g>
    <path fill="currentColor" class="st0" d="M27.42,394.22c0,22.63,18.96,31.6,39.68,31.6s39.83-8.97,39.83-31.6c0-19.55-12.79-27.05-25.57-28.22v-17.49c23.66,2.35,40.56,18.52,40.56,45.27,0,30.27-23.08,49.38-54.82,49.38s-54.68-19.11-54.68-49.38c0-26.6,16.9-42.77,38.36-45.27v17.49c-10.58,1.91-23.37,8.82-23.37,28.22Z"/>
    <path fill="currentColor" class="st0" d="M14.63,335.59v-44.83c0-21.6,11.02-35.57,30.13-35.57,14.7,0,23.22,7.5,26.16,19.55h.29c4.55-24.25,45.71-15.43,47.47-21.02h1.03v18.37c-4.41,4.85-40.57-5-40.57,20.28v25.72h40.57v17.49H14.63ZM64.16,318.1v-23.66c0-10.73-2.06-21.9-17.34-21.9s-17.34,11.17-17.34,21.9v23.66h34.68Z"/>
    <path fill="currentColor" class="st0" d="M14.63,223.03h105.09v17.49H14.63v-17.49Z"/>
    <path fill="currentColor" class="st0" d="M14.63,194.52l85.98-26.75v-.15l-85.98-26.75v-18.52l105.09,35.86v18.96L14.63,213.04v-18.52Z"/>
    <path fill="currentColor" class="st0" d="M67.11,121.64c-31.6,0-54.68-19.84-54.68-51.59s23.08-51.59,54.68-51.59,54.82,19.99,54.82,51.59-23.22,51.59-54.82,51.59ZM67.11,35.95c-21.16,0-39.68,10-39.68,34.1s18.52,34.24,39.68,34.24,39.83-10.14,39.83-34.24-18.52-34.1-39.83-34.1Z"/>
  </g>
  <g>
    <path fill="currentColor" class="st0" d="M186.13,348.66c-22.63,0-31.6,18.96-31.6,39.68s8.97,39.83,31.6,39.83c19.55,0,27.05-12.79,28.22-25.57h17.49c-2.35,23.66-18.52,40.56-45.27,40.56-30.27,0-49.38-23.08-49.38-54.82s19.11-54.68,49.38-54.68c26.6,0,42.77,16.9,45.27,38.36h-17.49c-1.91-10.58-8.82-23.37-28.22-23.37Z"/>
    <path fill="currentColor" class="st0" d="M244.76,335.87h44.83c21.6,0,35.57,11.02,35.57,30.13,0,14.7-7.5,23.22-19.55,26.16v.29c24.25,4.55,15.43,45.71,21.02,47.47v1.03h-18.37c-4.85-4.41,5-40.57-20.28-40.57h-25.72v40.57h-17.49v-105.09ZM262.25,385.4h23.66c10.73,0,21.9-2.06,21.9-17.34s-11.17-17.34-21.9-17.34h-23.66v34.68Z"/>
    <path fill="currentColor" class="st0" d="M357.33,335.87v105.09h-17.49v-105.09h17.49Z"/>
    <path fill="currentColor" class="st0" d="M385.83,335.87l26.75,85.98h.15l26.75-85.98h18.52l-35.86,105.09h-18.96l-35.86-105.09h18.52Z"/>
    <path fill="currentColor" class="st0" d="M458.72,388.34c0-31.6,19.84-54.68,51.59-54.68s51.59,23.08,51.59,54.68-19.99,54.82-51.59,54.82-51.59-23.22-51.59-54.82ZM544.4,388.34c0-21.16-10-39.68-34.1-39.68s-34.24,18.52-34.24,39.68,10.14,39.83,34.24,39.83,34.1-18.52,34.1-39.83Z"/>
  </g>
  <rect fill="currentColor" class="st0" x="142.27" y="223.15" width="412.06" height="16.41" transform="translate(-58.09 132.96) rotate(-19.98)"/>
  <path fill="currentColor" class="st0" d="M701.95,43.17c0-14.19,10.72-24.71,24.4-24.71s24.3,10.52,24.3,24.71-10.72,24.71-24.3,24.71-24.4-10.52-24.4-24.71ZM745.96,43.17c0-11.84-8.37-20.32-19.6-20.32s-19.7,8.47-19.7,20.32,8.37,20.32,19.7,20.32,19.6-8.37,19.6-20.32ZM716.76,29.79h11.23c5.41,0,8.99,2.76,8.99,7.56,0,3.68-1.94,5.82-4.9,6.53v.1c6.02,1.12,3.78,11.44,5.21,11.84v.31h-5.41c-1.12-1.12,1.43-10.21-5.61-10.21h-4.39v10.21h-5.1v-26.34ZM721.86,41.53h4.49c2.76,0,5.41-.2,5.41-3.68s-2.65-3.57-5.41-3.57h-4.49v7.25Z"/>
</svg>