<svg xmlns="http://www.w3.org/2000/svg" xmlns:xlink="http://www.w3.org/1999/xlink" width="189.223" height="106.295" viewBox="0 0 189.223 106.295">
  <defs>
    <clipPath id="clip-path">
      <rect id="Rectangle_39" data-name="Rectangle 39" width="189.223" height="106.295"/>
    </clipPath>
  </defs>
  <g id="Group_42" data-name="Group 42" clip-path="url(#clip-path)">
    <path id="Path_176" data-name="Path 176" d="M16.327,106.511A94.666,94.666,0,0,1,16.16.462l5.67,3.83a87.82,87.82,0,0,0,.156,98.37Z" transform="translate(0 -0.215)"/>
    <path id="Path_177" data-name="Path 177" d="M319.2,106.047l-5.67-3.83a87.821,87.821,0,0,0-.155-98.369L319.036,0a94.664,94.664,0,0,1,.167,106.046" transform="translate(-146.14 0)"/>
    <path id="Path_178" data-name="Path 178" d="M253.353,75.515v-.169c6.676-1.69,10.816-6.506,10.816-15.209,0-10.732-8.028-17.154-19.942-17.154h-24.5V103.4h7.606V81.6l-4.946-2.619H244.65c15.294,0,9.548,21.885,12.167,24.42h8.2v-1.191c-3.127-1.014,1.775-24.074-11.661-26.694m-10.9-3.3H227.328V49.743h15.125c6.253,0,14.112.761,14.112,11.238S248.705,72.22,242.452,72.22" transform="translate(-102.464 -20.045)"/>
    <path id="Path_179" data-name="Path 179" d="M168.483,75.515v-.169c6.676-1.69,10.816-6.506,10.816-15.209,0-10.732-8.027-17.154-19.942-17.154h-24.5V103.4h7.605V81.6l-4.946-2.619h22.268c15.295,0,9.549,21.885,12.168,24.42h8.2v-1.191c-3.127-1.014,1.774-24.074-11.661-26.694m-10.9-3.3H142.457V49.743h15.126c6.252,0,14.111.761,14.111,11.238S163.835,72.22,157.583,72.22" transform="translate(-62.886 -20.045)"/>
    <path id="Path_180" data-name="Path 180" d="M83.612,75.515v-.169c6.676-1.69,10.816-6.506,10.816-15.209,0-10.732-8.027-17.154-19.942-17.154h-24.5V103.4h7.606V81.6L52.641,78.98H74.909c15.294,0,9.548,21.885,12.168,24.42h8.2v-1.191c-3.127-1.014,1.775-24.074-11.661-26.694m-10.9-3.3H57.586V49.743H72.711c6.253,0,14.112.761,14.112,11.238S78.964,72.22,72.711,72.22" transform="translate(-23.308 -20.045)"/>
  </g>
</svg>
